<?xml version="1.0" standalone="no"?>
<!DOCTYPE svg PUBLIC "-//W3C//DTD SVG 20010904//EN"
 "http://www.w3.org/TR/2001/REC-SVG-20010904/DTD/svg10.dtd">
<svg version="1.0" xmlns="http://www.w3.org/2000/svg"
 width="62.000000pt" height="64.000000pt" viewBox="0 0 62.000000 64.000000"
 preserveAspectRatio="xMidYMid meet">

<g transform="translate(0.000000,64.000000) scale(0.100000,-0.100000)"
fill="#000000" stroke="none">
<path d="M204 619 c-153 -59 -236 -231 -190 -391 29 -99 97 -171 196 -209 140
-53 307 17 377 159 24 49 28 69 28 142 0 73 -4 93 -28 142 -71 144 -239 213
-383 157z m97 -140 l29 -20 0 20 c0 38 46 17 82 -36 24 -37 23 -38 -12 -38
-54 0 -36 -20 32 -34 71 -15 79 -22 71 -64 -4 -22 -11 -27 -34 -27 -21 0 -29
5 -29 17 0 13 3 14 12 5 7 -7 17 -12 23 -12 5 1 -1 10 -14 20 -26 23 -90 27
-110 7 -11 -10 -13 -6 -9 20 2 18 1 30 -4 27 -13 -8 -9 -60 5 -71 6 -6 44 -14
84 -17 62 -6 73 -5 83 11 17 27 3 -73 -17 -117 -23 -51 -42 -70 -98 -96 -78
-37 -171 -30 -241 18 -42 29 -61 63 -64 113 -6 89 -9 85 76 85 67 0 75 2 64
15 -17 21 -6 30 13 11 14 -14 16 -13 22 15 4 17 3 35 -3 41 -6 6 -8 1 -5 -16
5 -24 4 -25 -48 -20 -41 4 -59 2 -74 -11 -20 -16 -20 -16 3 -10 13 4 22 2 22
-5 0 -7 -13 -10 -32 -8 -31 3 -33 5 -30 38 1 19 7 37 12 38 6 2 8 8 5 13 -9
13 21 65 51 88 35 28 96 28 135 0z m179 -72 l0 -41 -20 20 c-16 15 -19 27 -14
52 9 46 34 23 34 -31z m-290 -87 c0 -5 -4 -10 -10 -10 -5 0 -10 5 -10 10 0 6
5 10 10 10 6 0 10 -4 10 -10z m176 -27 c-10 -10 -19 5 -10 18 6 11 8 11 12 0
2 -7 1 -15 -2 -18z m34 17 c0 -5 -5 -10 -11 -10 -5 0 -7 5 -4 10 3 6 8 10 11
10 2 0 4 -4 4 -10z m-336 -88 c3 -46 2 -62 -7 -59 -19 6 -29 69 -17 101 6 16
12 27 15 25 2 -3 6 -33 9 -67z m514 0 c3 -32 -21 -92 -38 -92 -18 0 -19 19 -2
74 18 60 35 68 40 18z"/>
<path d="M161 403 c-22 -18 -21 -18 26 -18 46 0 67 10 57 27 -9 14 -61 8 -83
-9z"/>
<path d="M273 183 c15 -2 37 -2 50 0 12 2 0 4 -28 4 -27 0 -38 -2 -22 -4z"/>
</g>
</svg>
