<?xml version="1.0" standalone="no"?>
<!DOCTYPE svg PUBLIC "-//W3C//DTD SVG 20010904//EN"
 "http://www.w3.org/TR/2001/REC-SVG-20010904/DTD/svg10.dtd">
<svg version="1.0" xmlns="http://www.w3.org/2000/svg"
 width="256.000000pt" height="256.000000pt" viewBox="0 0 256.000000 256.000000"
 preserveAspectRatio="xMidYMid meet">

<g transform="translate(0.000000,256.000000) scale(0.100000,-0.100000)"
fill="#000000" stroke="none">
<path d="M1366 1858 c-118 -84 -262 -183 -615 -422 -107 -72 -196 -136 -198
-142 -4 -11 110 -84 382 -246 207 -124 255 -161 255 -201 0 -24 -3 -28 -17
-22 -31 12 -37 10 -41 -8 -7 -32 6 -63 33 -77 19 -10 25 -21 25 -48 0 -32 -2
-34 -27 -27 -23 5 -61 26 -137 77 -7 5 -3 13 12 23 27 19 33 91 7 81 -9 -3
-15 0 -15 10 0 10 -6 14 -15 10 -9 -3 -15 0 -15 10 0 10 -6 14 -14 11 -8 -3
-17 1 -20 10 -4 8 -12 13 -20 10 -9 -4 -16 3 -20 15 -4 17 -8 19 -19 9 -12 -9
-16 -7 -20 10 -9 33 -26 13 -33 -41 l-6 -48 -52 31 c-99 60 -116 77 -116 113
0 18 5 36 10 39 6 3 10 -1 10 -9 0 -9 5 -16 11 -16 6 0 9 9 7 20 -2 12 -7 19
-11 18 -5 -2 -13 5 -18 15 -6 9 -17 17 -24 17 -8 0 -15 5 -15 10 0 6 -7 10
-15 10 -8 0 -15 5 -15 10 0 6 -7 10 -15 10 -16 0 -18 7 -15 57 1 20 -5 35 -15
41 -9 5 -16 13 -14 18 1 5 -9 13 -23 18 -21 7 -35 4 -71 -19 -39 -25 -46 -34
-49 -67 -4 -43 -2 -44 29 -23 43 30 42 -29 -1 -63 -17 -13 -24 -31 -28 -70 -6
-59 1 -64 31 -24 12 15 21 21 21 13 0 -10 7 -8 24 8 l23 22 30 -35 c17 -18 41
-37 54 -41 23 -7 93 -49 363 -215 127 -78 201 -114 254 -125 36 -8 41 2 13 32
-19 20 -19 21 10 79 35 70 54 87 80 74 31 -17 65 -11 104 20 21 17 42 30 47
30 5 0 35 16 66 37 308 198 412 276 422 317 6 20 51 57 122 102 26 16 33 26
31 50 -1 17 -13 38 -28 51 -24 21 -25 28 -25 121 0 89 -2 100 -22 119 -13 11
-106 72 -208 136 -319 197 -297 194 -464 75z m224 45 c-1 -10 -232 -165 -237
-159 -6 6 9 18 122 95 99 69 115 78 115 64z m39 -26 c-20 -17 -248 -167 -253
-167 -3 0 -6 5 -6 10 0 6 4 10 9 10 4 0 61 36 126 80 65 44 121 78 123 75 3
-3 3 -7 1 -8z m40 -21 c-16 -16 -234 -154 -238 -150 -6 6 -11 2 112 83 60 39
114 71 120 71 6 0 8 -2 6 -4z m30 -29 c-118 -79 -212 -137 -216 -133 -3 3 43
37 102 76 59 39 110 68 113 65 3 -3 3 -6 1 -8z m40 -14 c-1 -11 -210 -145
-216 -139 -5 5 196 144 210 145 4 1 7 -2 6 -6z m40 -27 c-27 -24 -219 -143
-219 -135 0 12 190 138 209 139 8 0 12 -2 10 -4z m-450 -25 c7 -5 10 -14 7
-20 -10 -16 -56 -14 -56 2 0 26 23 35 49 18z m481 4 c0 -10 -212 -146 -218
-140 -4 4 0 10 8 15 8 5 56 36 105 69 86 57 105 67 105 56z m40 -22 c-1 -11
-224 -153 -230 -146 -3 3 3 10 13 17 10 6 59 39 110 73 93 62 107 69 107 56z
m40 -20 c0 -13 -241 -166 -248 -158 -4 4 -2 9 3 11 6 2 60 37 120 78 111 74
125 82 125 69z m-419 -48 c54 -19 123 -74 144 -116 34 -64 12 -145 -55 -202
-119 -101 -350 -115 -489 -29 -54 33 -80 66 -87 114 -19 112 63 206 211 245
64 16 215 10 276 -12z m454 17 c-30 -26 -267 -174 -271 -169 -7 7 246 175 266
176 8 1 10 -2 5 -7z m34 -25 c-2 -2 -42 -28 -89 -59 -142 -94 -202 -129 -207
-124 -3 3 28 26 68 52 41 26 108 69 148 95 41 27 77 46 80 44 2 -3 2 -6 0 -8z
m-1010 -224 c-1 -14 -300 -204 -310 -197 -5 3 18 23 53 44 35 21 104 66 153
99 88 60 106 68 104 54z m11 -40 c-1 -12 -272 -185 -279 -178 -3 4 1 11 9 15
8 5 69 45 135 89 120 79 135 88 135 74z m20 -37 c0 -10 -252 -167 -258 -161
-4 4 0 10 8 15 8 5 64 40 124 79 99 64 126 79 126 67z m25 -35 c-29 -27 -245
-159 -249 -152 -5 8 231 161 248 161 6 0 6 -3 1 -9z m30 -30 c-8 -7 -174 -115
-224 -145 -9 -6 -12 -5 -10 3 5 15 209 149 229 150 8 1 10 -2 5 -8z m40 -20
c-9 -16 -235 -154 -241 -148 -3 3 25 25 62 49 38 24 91 58 119 75 51 33 71 41
60 24z m50 -20 c-28 -24 -237 -152 -246 -149 -12 4 220 156 241 157 8 1 10 -2
5 -8z m799 -4 c16 -11 15 -15 -14 -42 -28 -27 -31 -28 -47 -12 -16 16 -15 18
7 42 27 29 30 29 54 12z m-746 -11 c-39 -31 -259 -163 -262 -157 -3 4 36 33
87 64 51 31 108 67 127 80 19 14 39 23 43 20 5 -3 7 -6 5 -7z m62 -3 c-1 -9
-260 -175 -281 -180 -22 -6 17 23 146 107 119 78 135 87 135 73z m30 -28 c0
-9 -262 -176 -272 -173 -9 3 250 177 265 178 4 0 7 -2 7 -5z m65 -4 c10 -17
-31 -33 -44 -17 -6 7 -8 16 -4 19 10 10 41 8 48 -2z m21 -39 c-14 -15 -15 -13
-3 17 8 23 13 28 15 16 2 -10 -3 -25 -12 -33z m479 14 c18 -13 18 -14 -4 -26
-13 -6 -49 -31 -80 -54 -31 -24 -63 -46 -71 -49 -17 -8 -18 -8 -140 -86 -47
-30 -90 -60 -95 -67 -9 -10 -16 -9 -34 5 -23 17 -22 18 178 145 110 70 203
132 206 137 8 12 18 11 40 -5z m-1184 -131 c5 4 9 2 9 -4 0 -5 3 -17 7 -27 5
-13 -3 -10 -31 11 -27 20 -33 30 -24 36 8 5 16 2 21 -7 5 -8 12 -12 18 -9z m3
-67 c-6 -9 -59 16 -69 31 -3 5 12 2 34 -7 22 -9 37 -20 35 -24z m746 -108 c0
-5 -13 -18 -30 -30 -25 -18 -32 -19 -50 -8 -26 17 -26 19 13 44 31 21 67 18
67 -6z m-447 -15 c59 -33 63 -37 59 -65 -6 -39 -24 -39 -86 3 -56 36 -72 57
-63 81 9 23 18 21 90 -19z"/>
<path d="M1247 1669 c-67 -10 -142 -40 -175 -72 -31 -29 -62 -90 -62 -122 0
-46 41 -104 91 -131 25 -12 27 -12 22 6 -3 13 5 30 26 51 18 17 34 29 37 26 6
-6 -27 -90 -39 -99 -11 -7 57 -28 88 -27 11 0 14 3 8 6 -17 6 -16 45 1 68 13
18 15 18 29 -15 29 -69 36 -72 97 -59 l55 12 -32 9 c-31 8 -72 52 -61 64 3 3
31 -7 62 -23 36 -18 51 -30 43 -35 -9 -6 -8 -8 3 -8 8 0 39 14 67 30 59 34 93
86 93 143 0 47 -49 111 -107 141 -43 21 -72 28 -163 40 -14 2 -51 0 -83 -5z
m66 -37 c9 -10 20 -33 23 -50 4 -18 12 -32 19 -32 24 0 65 -41 65 -65 0 -54
-92 -97 -162 -76 -52 16 -76 53 -60 93 l11 31 -82 -6 c-79 -6 -81 -6 -53 9 21
12 43 15 80 10 28 -4 56 -6 61 -6 24 -1 115 25 115 31 0 4 -11 21 -25 37 -14
17 -25 33 -25 36 0 12 17 6 33 -12z m111 -45 c-4 -23 -11 -46 -17 -52 -7 -7
-8 -4 -3 8 3 10 6 37 6 58 0 24 4 38 10 34 6 -4 7 -24 4 -48z m-174 0 l25 -20
-25 7 c-14 4 -45 12 -70 18 -37 9 -41 12 -25 18 27 11 64 1 95 -23z m251 -33
c-12 -15 -32 -35 -44 -43 -13 -10 -7 3 17 32 40 49 65 59 27 11z m69 -53 c0
-10 -121 -54 -128 -46 -3 2 1 7 9 9 11 4 104 40 117 45 1 1 2 -3 2 -8z m-425
-37 c-16 -8 -42 -27 -56 -40 -27 -26 -44 -20 -33 11 8 20 58 44 94 45 24 0 24
0 -5 -16z m365 -53 c44 -8 44 -9 -22 -10 -37 0 -70 4 -73 9 -7 12 31 12 95 1z"/>
<path d="M1239 1504 l-24 -26 28 -24 c44 -38 129 -26 143 19 17 55 -101 80
-147 31z m90 -3 c19 -12 6 -41 -19 -41 -25 0 -38 29 -19 41 8 5 16 9 19 9 3 0
11 -4 19 -9z"/>
<path d="M870 866 c0 -14 97 -76 119 -76 26 0 7 20 -50 54 -69 41 -69 41 -69
22z"/>
<path d="M600 1166 c0 -20 5 -36 10 -36 6 0 10 13 10 29 0 17 -4 33 -10 36 -6
4 -10 -8 -10 -29z"/>
<path d="M630 1151 c0 -17 5 -33 10 -36 6 -4 10 8 10 29 0 20 -4 36 -10 36 -5
0 -10 -13 -10 -29z"/>
<path d="M664 1147 c-7 -20 -2 -47 11 -50 14 -3 19 43 6 56 -7 7 -12 6 -17 -6z"/>
<path d="M700 1105 c0 -22 4 -34 10 -30 6 3 10 17 10 30 0 13 -4 27 -10 30 -6
4 -10 -8 -10 -30z"/>
<path d="M730 1091 c0 -17 5 -33 10 -36 6 -4 10 8 10 29 0 20 -4 36 -10 36 -5
0 -10 -13 -10 -29z"/>
<path d="M760 1071 c0 -17 5 -33 10 -36 6 -4 10 8 10 29 0 20 -4 36 -10 36 -5
0 -10 -13 -10 -29z"/>
<path d="M794 1066 c-7 -20 2 -46 16 -46 13 0 13 47 0 55 -6 3 -13 -1 -16 -9z"/>
<path d="M830 1030 c0 -16 5 -30 10 -30 6 0 10 14 10 30 0 17 -4 30 -10 30 -5
0 -10 -13 -10 -30z"/>
<path d="M730 1021 c0 -11 5 -23 10 -26 6 -4 10 5 10 19 0 14 -4 26 -10 26 -5
0 -10 -9 -10 -19z"/>
<path d="M864 1026 c-8 -21 -1 -49 14 -54 8 -2 12 7 12 27 0 33 -17 51 -26 27z"/>
<path d="M762 998 c2 -13 6 -21 10 -18 4 3 14 -4 22 -15 13 -18 15 -18 21 -3
9 22 -3 41 -21 34 -8 -3 -14 1 -14 9 0 8 -5 15 -11 15 -6 0 -9 -10 -7 -22z"/>
<path d="M900 991 c0 -16 5 -33 10 -36 6 -4 10 6 10 24 0 16 -4 33 -10 36 -6
4 -10 -6 -10 -24z"/>
<path d="M940 966 c0 -20 5 -36 10 -36 6 0 10 13 10 29 0 17 -4 33 -10 36 -6
4 -10 -8 -10 -29z"/>
<path d="M690 980 c0 -5 17 -20 38 -33 63 -40 80 -48 87 -38 3 6 -19 26 -50
46 -57 36 -75 42 -75 25z"/>
<path d="M830 961 c0 -11 5 -23 10 -26 6 -4 10 5 10 19 0 14 -4 26 -10 26 -5
0 -10 -9 -10 -19z"/>
<path d="M972 944 c2 -15 9 -29 16 -32 10 -3 13 4 10 24 -2 15 -9 29 -16 32
-10 3 -13 -4 -10 -24z"/>
<path d="M1010 921 c0 -17 5 -33 10 -36 6 -4 10 8 10 29 0 20 -4 36 -10 36 -5
0 -10 -13 -10 -29z"/>
<path d="M1040 900 c0 -16 5 -30 10 -30 6 0 10 14 10 30 0 17 -4 30 -10 30 -5
0 -10 -13 -10 -30z"/>
</g>
</svg>
